<svg width="24" height="24" fill="none" xmlns="http://www.w3.org/2000/svg" id="qa-CREATE_REMINDER_BTN" class="_1TaQ6wOzw2MBX_mYb0asGX">
  <path d="M12 2.498a1.714 1.714 0 00-1.699 1.944 5.336 5.336 0 00-4.006 5.167v2.625c0 .335-.087.665-.253.957l-1.813 3.185a1.365 1.365 0 001.136 2.122h8.398a5.503 5.503 0 014.553-4.678l-.358-.629a1.936 1.936 0 01-.254-.947V9.61A5.335 5.335 0 0013.7 4.442 1.714 1.714 0 0012 2.498zm1.763 17.5c.052.38.143.747.268 1.099a2.72 2.72 0 01-2.031.9c-1.265 0-2.327-.85-2.621-2h4.384zm6.199-3.744a.75.75 0 00-1.5 0v2.285h-2.216a.75.75 0 000 1.5h2.216v2.215a.75.75 0 001.5 0V20.04h2.284a.75.75 0 000-1.5h-2.284v-2.285z" fill="currentColor"></path>
</svg>