<svg width="24" height="24" viewBox="0 0 24 24" fill="none" xmlns="http://www.w3.org/2000/svg" class="_3J6QilKp5hTOt3Z9Yj1mjA">
  <path fill-rule="evenodd" clip-rule="evenodd" d="M4.898 6.933C3.958 5.747 4.803 4 6.316 4h11.368c1.513 0 2.358 1.747 1.417 2.933l-4.442 5.6v3.434c0 .688-.312 1.34-.847 1.774l-2.444 1.979c-.816.66-2.034.08-2.034-.97v-6.216L4.898 6.933zm1.418-1.688a.564.564 0 00-.442.915l4.705 5.94V18.751l.002.001.002.001.002-.001 2.444-1.979c.243-.197.385-.493.385-.806V12.1l4.712-5.94a.564.564 0 00-.442-.915H6.316z" fill="currentColor"></path>
</svg>