<svg width="24" height="24" viewBox="0 0 24 24" fill="none" xmlns="http://www.w3.org/2000/svg">
  <path fill-rule="evenodd" clip-rule="evenodd" d="M12.375 6.95v-1.7H6a.75.75 0 00-.75.75v.95h7.125zm0 1.25H5.25v1.705h7.125V8.2zm0 2.955H5.25v1.7h7.125v-1.7zm0 2.95H5.25v1.7h7.125v-1.7zm0 2.95H5.25V18c0 .414.336.75.75.75h6.375v-1.695zM6 20a2 2 0 01-2-2V6a2 2 0 012-2h12a2 2 0 012 2v12a2 2 0 01-2 2H6zm7.625-14.75H18a.75.75 0 01.75.75v12a.75.75 0 01-.75.75h-4.375V5.25z" fill="currentColor"></path>
</svg>